<?xml version="1.0" encoding="UTF-8"?>
<svg version="1.1" xmlns="http://www.w3.org/2000/svg" width="500" height="500">
<path d="M0,0 L19,0 L19,1 L28,1 L28,2 L31,2 L31,4 L18,4 L18,5 L10,5 L10,6 L6,6 L6,7 L2,7 L2,8 L-1,8 L-1,9 L-5,9 L-5,10 L-7,10 L-7,11 L-10,11 L-10,12 L-12,12 L-12,13 L-14,13 L-14,14 L-16,14 L-16,15 L-17,15 L-17,16 L-18,16 L-18,17 L-19,17 L-19,19 L-20,19 L-20,23 L-18,23 L-18,24 L-17,24 L-17,25 L-4,25 L-4,24 L-1,24 L-1,23 L4,23 L4,22 L7,22 L7,21 L14,21 L14,20 L19,20 L19,19 L58,19 L58,20 L62,20 L62,21 L68,21 L68,22 L71,22 L71,23 L76,23 L76,24 L77,24 L77,25 L82,25 L82,26 L85,26 L85,27 L88,27 L88,28 L91,28 L91,29 L93,29 L93,30 L96,30 L96,31 L98,31 L98,32 L100,32 L100,33 L102,33 L102,34 L105,34 L105,35 L106,35 L106,36 L109,36 L109,37 L110,37 L110,38 L112,38 L112,39 L113,39 L113,40 L115,40 L115,41 L117,41 L117,42 L118,42 L118,43 L120,43 L120,44 L122,44 L122,45 L124,45 L124,46 L125,46 L125,47 L126,47 L126,48 L127,48 L127,49 L129,49 L129,50 L130,50 L130,51 L131,51 L131,52 L132,52 L132,53 L134,53 L134,54 L135,54 L135,55 L136,55 L136,56 L137,56 L137,57 L138,57 L138,58 L139,58 L139,59 L140,59 L140,60 L142,60 L142,62 L144,62 L144,64 L145,64 L145,65 L146,65 L146,66 L147,66 L147,67 L148,67 L148,68 L149,68 L149,69 L150,69 L150,71 L152,71 L152,73 L153,73 L153,74 L154,74 L154,75 L155,75 L155,77 L156,77 L156,78 L157,78 L157,80 L158,80 L158,81 L159,81 L159,83 L160,83 L160,84 L161,84 L161,86 L162,86 L162,87 L163,87 L163,90 L164,90 L164,91 L165,91 L165,93 L166,93 L166,94 L167,94 L167,97 L168,97 L168,98 L169,98 L169,101 L170,101 L170,103 L171,103 L171,105 L172,105 L172,109 L173,109 L173,110 L174,110 L174,114 L175,114 L175,116 L176,116 L176,120 L177,120 L177,122 L178,122 L178,126 L179,126 L179,130 L180,130 L180,137 L181,137 L181,139 L182,139 L182,148 L183,148 L183,155 L184,155 L184,159 L183,159 L183,160 L182,160 L182,159 L181,159 L181,149 L180,149 L180,146 L179,146 L179,140 L178,140 L178,137 L177,137 L177,133 L176,133 L176,131 L175,131 L175,128 L174,128 L174,125 L173,125 L173,122 L172,122 L172,119 L171,119 L171,117 L170,117 L170,115 L169,115 L169,113 L168,113 L168,111 L167,111 L167,109 L166,109 L166,106 L164,106 L164,103 L163,103 L163,102 L162,102 L162,100 L161,100 L161,99 L160,99 L160,97 L159,97 L159,96 L158,96 L158,94 L157,94 L157,92 L156,92 L156,91 L155,91 L155,89 L154,89 L154,88 L153,88 L153,87 L152,87 L152,86 L151,86 L151,85 L150,85 L150,83 L149,83 L149,82 L148,82 L148,81 L147,81 L147,80 L146,80 L146,79 L145,79 L145,78 L144,78 L144,76 L142,76 L142,74 L140,74 L140,72 L138,72 L138,70 L136,70 L136,69 L135,69 L135,68 L134,68 L134,67 L133,67 L133,66 L132,66 L132,65 L131,65 L131,64 L129,64 L129,63 L128,63 L128,62 L127,62 L127,61 L125,61 L125,59 L123,59 L123,58 L122,58 L122,57 L120,57 L120,56 L119,56 L119,55 L117,55 L117,54 L116,54 L116,53 L114,53 L114,52 L112,52 L112,51 L110,51 L110,50 L108,50 L108,49 L107,49 L107,48 L105,48 L105,47 L103,47 L103,46 L101,46 L101,45 L100,45 L100,44 L97,44 L97,43 L95,43 L95,42 L92,42 L92,41 L89,41 L89,40 L86,40 L86,39 L84,39 L84,38 L81,38 L81,37 L77,37 L77,36 L74,36 L74,35 L68,35 L68,34 L65,34 L65,33 L57,33 L57,32 L51,32 L51,31 L26,31 L26,32 L21,32 L21,33 L12,33 L12,34 L9,34 L9,35 L4,35 L4,36 L0,36 L0,37 L-3,37 L-3,38 L-6,38 L-6,39 L-9,39 L-9,40 L-12,40 L-12,41 L-15,41 L-15,42 L-18,42 L-18,43 L-20,43 L-20,44 L-22,44 L-22,45 L-24,45 L-24,46 L-26,46 L-26,47 L-28,47 L-28,48 L-30,48 L-30,49 L-31,49 L-31,50 L-33,50 L-33,51 L-35,51 L-35,52 L-37,52 L-37,53 L-38,53 L-38,54 L-40,54 L-40,55 L-42,55 L-42,56 L-43,56 L-43,57 L-44,57 L-44,58 L-46,58 L-46,59 L-48,59 L-48,61 L-50,61 L-50,62 L-51,62 L-51,63 L-52,63 L-52,64 L-53,64 L-53,65 L-55,65 L-55,66 L-56,66 L-56,67 L-57,67 L-57,68 L-58,68 L-58,69 L-59,69 L-59,70 L-61,70 L-61,72 L-63,72 L-63,74 L-65,74 L-65,76 L-66,76 L-66,77 L-67,77 L-67,78 L-68,78 L-68,79 L-69,79 L-69,80 L-70,80 L-70,81 L-71,81 L-71,82 L-72,82 L-72,84 L-73,84 L-73,85 L-74,85 L-74,86 L-75,86 L-75,87 L-76,87 L-76,89 L-77,89 L-77,90 L-78,90 L-78,91 L-79,91 L-79,93 L-80,93 L-80,94 L-81,94 L-81,96 L-82,96 L-82,97 L-83,97 L-83,99 L-84,99 L-84,100 L-85,100 L-85,102 L-86,102 L-86,104 L-87,104 L-87,106 L-88,106 L-88,107 L-89,107 L-89,109 L-90,109 L-90,111 L-91,111 L-91,113 L-92,113 L-92,115 L-93,115 L-93,118 L-94,118 L-94,121 L-95,121 L-95,122 L-96,122 L-96,126 L-97,126 L-97,128 L-98,128 L-98,131 L-99,131 L-99,134 L-100,134 L-100,139 L-101,139 L-101,142 L-102,142 L-102,147 L-103,147 L-103,151 L-104,151 L-104,160 L-105,160 L-105,188 L-104,188 L-104,197 L-103,197 L-103,201 L-102,201 L-102,206 L-101,206 L-101,210 L-100,210 L-100,214 L-99,214 L-99,217 L-98,217 L-98,220 L-97,220 L-97,223 L-96,223 L-96,226 L-95,226 L-95,228 L-94,228 L-94,230 L-93,230 L-93,233 L-92,233 L-92,235 L-91,235 L-91,237 L-90,237 L-90,239 L-89,239 L-89,241 L-88,241 L-88,242 L-87,242 L-87,245 L-86,245 L-86,246 L-85,246 L-85,248 L-84,248 L-84,249 L-83,249 L-83,251 L-82,251 L-82,252 L-81,252 L-81,254 L-80,254 L-80,255 L-79,255 L-79,257 L-78,257 L-78,258 L-77,258 L-77,260 L-76,260 L-76,261 L-75,261 L-75,262 L-74,262 L-74,263 L-73,263 L-73,264 L-72,264 L-72,266 L-71,266 L-71,267 L-70,267 L-70,268 L-69,268 L-69,269 L-68,269 L-68,271 L-66,271 L-66,273 L-65,273 L-65,274 L-64,274 L-64,275 L-63,275 L-63,276 L-62,276 L-62,277 L-61,277 L-61,278 L-59,278 L-59,279 L-58,279 L-58,280 L-57,280 L-57,281 L-56,281 L-56,282 L-55,282 L-55,283 L-54,283 L-54,284 L-52,284 L-52,285 L-51,285 L-51,286 L-50,286 L-50,287 L-49,287 L-49,288 L-47,288 L-47,289 L-46,289 L-46,290 L-44,290 L-44,291 L-43,291 L-43,292 L-42,292 L-42,293 L-40,293 L-40,294 L-39,294 L-39,295 L-37,295 L-37,296 L-35,296 L-35,297 L-33,297 L-33,298 L-32,298 L-32,299 L-30,299 L-30,300 L-29,300 L-29,301 L-26,301 L-26,302 L-25,302 L-25,303 L-22,303 L-22,304 L-20,304 L-20,305 L-17,305 L-17,306 L-15,306 L-15,307 L-13,307 L-13,308 L-10,308 L-10,309 L-7,309 L-7,310 L-3,310 L-3,311 L-1,311 L-1,312 L4,312 L4,313 L6,313 L6,314 L13,314 L13,315 L16,315 L16,316 L29,316 L29,317 L48,317 L48,316 L61,316 L61,315 L64,315 L64,314 L71,314 L71,313 L73,313 L73,312 L78,312 L78,311 L80,311 L80,310 L84,310 L84,309 L87,309 L87,308 L90,308 L90,307 L92,307 L92,306 L94,306 L94,305 L97,305 L97,304 L99,304 L99,303 L102,303 L102,302 L103,302 L103,301 L106,301 L106,300 L107,300 L107,299 L109,299 L109,298 L110,298 L110,297 L112,297 L112,296 L113,296 L113,295 L115,295 L115,294 L116,294 L116,293 L117,293 L117,292 L118,292 L118,291 L119,291 L119,290 L120,290 L120,289 L121,289 L121,288 L122,288 L122,286 L123,286 L123,284 L124,284 L124,283 L125,283 L125,281 L126,281 L126,280 L127,280 L127,277 L128,277 L128,276 L129,276 L129,272 L130,272 L130,268 L131,268 L131,263 L129,263 L129,264 L117,264 L117,263 L115,263 L115,262 L114,262 L114,261 L112,261 L112,260 L111,260 L111,258 L114,258 L114,257 L116,257 L116,256 L119,256 L119,255 L120,255 L120,254 L123,254 L123,253 L124,253 L124,252 L126,252 L126,251 L127,251 L127,250 L129,250 L129,249 L130,249 L130,248 L131,248 L131,247 L132,247 L132,245 L134,245 L134,243 L135,243 L135,242 L136,242 L136,241 L137,241 L137,239 L138,239 L138,237 L139,237 L139,236 L140,236 L140,234 L142,234 L142,232 L143,232 L143,231 L144,231 L144,229 L145,229 L145,228 L146,228 L146,227 L147,227 L147,225 L149,225 L149,223 L150,223 L150,222 L151,222 L151,221 L153,221 L153,220 L154,220 L154,219 L155,219 L155,218 L156,218 L156,217 L157,217 L157,216 L158,216 L158,215 L160,215 L160,214 L161,214 L161,213 L162,213 L162,212 L164,212 L164,211 L166,211 L166,210 L167,210 L167,209 L169,209 L169,208 L171,208 L171,207 L173,207 L173,206 L175,206 L175,205 L177,205 L177,204 L180,204 L180,203 L181,203 L181,202 L185,202 L185,201 L186,201 L186,200 L190,200 L190,199 L193,199 L193,198 L198,198 L198,197 L203,197 L203,196 L212,196 L212,197 L211,197 L211,198 L209,198 L209,199 L206,199 L206,200 L205,200 L205,201 L203,201 L203,202 L202,202 L202,203 L200,203 L200,204 L199,204 L199,205 L197,205 L197,206 L196,206 L196,207 L195,207 L195,208 L194,208 L194,209 L193,209 L193,210 L192,210 L192,212 L191,212 L191,213 L190,213 L190,214 L189,214 L189,216 L188,216 L188,217 L187,217 L187,219 L186,219 L186,221 L185,221 L185,224 L184,224 L184,228 L183,228 L183,231 L182,231 L182,246 L183,246 L183,253 L184,253 L184,259 L183,259 L183,264 L182,264 L182,270 L181,270 L181,271 L180,271 L180,274 L179,274 L179,275 L177,275 L177,268 L176,268 L176,267 L175,267 L175,266 L173,266 L173,265 L170,265 L170,266 L168,266 L168,267 L167,267 L167,268 L165,268 L165,270 L163,270 L163,272 L162,272 L162,274 L161,274 L161,275 L160,275 L160,276 L159,276 L159,278 L158,278 L158,279 L157,279 L157,281 L156,281 L156,284 L155,284 L155,285 L154,285 L154,288 L153,288 L153,289 L152,289 L152,292 L151,292 L151,294 L150,294 L150,297 L149,297 L149,299 L148,299 L148,303 L147,303 L147,305 L146,305 L146,309 L145,309 L145,312 L144,312 L144,318 L143,318 L143,324 L142,324 L142,330 L141,330 L141,344 L140,344 L140,352 L139,352 L139,360 L138,360 L138,363 L137,363 L137,367 L136,367 L136,369 L135,369 L135,374 L134,374 L134,375 L133,375 L133,378 L132,378 L132,380 L131,380 L131,383 L130,383 L130,385 L129,385 L129,387 L128,387 L128,389 L127,389 L127,391 L126,391 L126,392 L125,392 L125,394 L124,394 L124,396 L123,396 L123,397 L122,397 L122,396 L121,396 L121,395 L122,395 L122,392 L123,392 L123,389 L124,389 L124,387 L125,387 L125,382 L126,382 L126,379 L127,379 L127,374 L126,374 L126,371 L125,371 L125,369 L124,369 L124,367 L122,367 L122,366 L121,366 L121,365 L113,365 L113,366 L111,366 L111,367 L108,367 L108,368 L107,368 L107,369 L105,369 L105,370 L103,370 L103,371 L102,371 L102,372 L100,372 L100,373 L99,373 L99,374 L97,374 L97,375 L96,375 L96,376 L94,376 L94,378 L92,378 L92,379 L91,379 L91,380 L90,380 L90,381 L89,381 L89,382 L87,382 L87,383 L86,383 L86,384 L85,384 L85,385 L84,385 L84,386 L83,386 L83,387 L82,387 L82,388 L81,388 L81,389 L80,389 L80,390 L79,390 L79,391 L77,391 L77,393 L76,393 L76,394 L75,394 L75,395 L74,395 L74,396 L73,396 L73,397 L72,397 L72,398 L71,398 L71,399 L70,399 L70,400 L69,400 L69,401 L68,401 L68,402 L66,402 L66,404 L64,404 L64,406 L62,406 L62,407 L61,407 L61,408 L60,408 L60,409 L59,409 L59,410 L57,410 L57,411 L56,411 L56,412 L55,412 L55,413 L53,413 L53,414 L51,414 L51,415 L50,415 L50,416 L49,416 L49,417 L46,417 L46,418 L45,418 L45,419 L43,419 L43,420 L42,420 L42,421 L39,421 L39,422 L38,422 L38,423 L34,423 L34,424 L32,424 L32,425 L30,425 L30,426 L27,426 L27,427 L23,427 L23,428 L20,428 L20,429 L14,429 L14,430 L6,430 L6,431 L-1,431 L-1,430 L2,430 L2,429 L5,429 L5,428 L10,428 L10,427 L12,427 L12,426 L15,426 L15,425 L17,425 L17,424 L19,424 L19,423 L20,423 L20,422 L22,422 L22,421 L23,421 L23,420 L24,420 L24,419 L26,419 L26,418 L27,418 L27,417 L28,417 L28,416 L29,416 L29,415 L30,415 L30,413 L32,413 L32,411 L33,411 L33,410 L34,410 L34,409 L35,409 L35,407 L36,407 L36,406 L37,406 L37,404 L38,404 L38,402 L39,402 L39,400 L40,400 L40,394 L39,394 L39,392 L38,392 L38,391 L36,391 L36,390 L34,390 L34,389 L30,389 L30,390 L28,390 L28,391 L23,391 L23,392 L20,392 L20,393 L16,393 L16,394 L14,394 L14,395 L11,395 L11,396 L8,396 L8,397 L3,397 L3,398 L2,398 L2,399 L-3,399 L-3,400 L-5,400 L-5,401 L-9,401 L-9,402 L-13,402 L-13,403 L-15,403 L-15,404 L-19,404 L-19,405 L-21,405 L-21,406 L-24,406 L-24,407 L-26,407 L-26,408 L-31,408 L-31,409 L-33,409 L-33,410 L-36,410 L-36,411 L-39,411 L-39,412 L-43,412 L-43,413 L-46,413 L-46,414 L-51,414 L-51,415 L-56,415 L-56,416 L-61,416 L-61,417 L-96,417 L-96,416 L-100,416 L-100,415 L-105,415 L-105,414 L-109,414 L-109,413 L-111,413 L-111,412 L-115,412 L-115,411 L-117,411 L-117,410 L-119,410 L-119,409 L-121,409 L-121,408 L-124,408 L-124,407 L-125,407 L-125,406 L-127,406 L-127,405 L-129,405 L-129,404 L-131,404 L-131,403 L-132,403 L-132,402 L-134,402 L-134,401 L-135,401 L-135,400 L-136,400 L-136,399 L-138,399 L-138,398 L-139,398 L-139,397 L-140,397 L-140,396 L-141,396 L-141,395 L-142,395 L-142,394 L-143,394 L-143,393 L-144,393 L-144,391 L-143,391 L-143,392 L-141,392 L-141,393 L-140,393 L-140,394 L-138,394 L-138,395 L-136,395 L-136,396 L-133,396 L-133,397 L-132,397 L-132,398 L-128,398 L-128,399 L-125,399 L-125,400 L-121,400 L-121,401 L-106,401 L-106,400 L-104,400 L-104,399 L-102,399 L-102,398 L-101,398 L-101,396 L-99,396 L-99,392 L-98,392 L-98,390 L-99,390 L-99,386 L-100,386 L-100,385 L-101,385 L-101,383 L-102,383 L-102,382 L-103,382 L-103,381 L-104,381 L-104,380 L-106,380 L-106,378 L-108,378 L-108,377 L-109,377 L-109,376 L-110,376 L-110,375 L-112,375 L-112,374 L-114,374 L-114,373 L-115,373 L-115,372 L-117,372 L-117,371 L-119,371 L-119,370 L-121,370 L-121,369 L-123,369 L-123,368 L-124,368 L-124,367 L-127,367 L-127,366 L-129,366 L-129,365 L-132,365 L-132,364 L-133,364 L-133,363 L-136,363 L-136,362 L-138,362 L-138,361 L-142,361 L-142,360 L-145,360 L-145,359 L-148,359 L-148,358 L-151,358 L-151,357 L-153,357 L-153,356 L-156,356 L-156,355 L-158,355 L-158,354 L-161,354 L-161,353 L-162,353 L-162,352 L-165,352 L-165,351 L-166,351 L-166,350 L-168,350 L-168,349 L-170,349 L-170,348 L-171,348 L-171,347 L-172,347 L-172,346 L-175,346 L-175,345 L-176,345 L-176,344 L-177,344 L-177,343 L-179,343 L-179,341 L-181,341 L-181,340 L-182,340 L-182,339 L-183,339 L-183,338 L-184,338 L-184,337 L-185,337 L-185,336 L-186,336 L-186,335 L-187,335 L-187,334 L-188,334 L-188,333 L-189,333 L-189,332 L-190,332 L-190,331 L-191,331 L-191,330 L-192,330 L-192,328 L-193,328 L-193,327 L-194,327 L-194,326 L-195,326 L-195,325 L-196,325 L-196,323 L-197,323 L-197,322 L-198,322 L-198,320 L-199,320 L-199,318 L-200,318 L-200,317 L-201,317 L-201,315 L-202,315 L-202,313 L-203,313 L-203,311 L-204,311 L-204,309 L-205,309 L-205,307 L-206,307 L-206,305 L-207,305 L-207,301 L-208,301 L-208,300 L-209,300 L-209,296 L-210,296 L-210,293 L-211,293 L-211,288 L-212,288 L-212,285 L-213,285 L-213,277 L-214,277 L-214,274 L-212,274 L-212,276 L-211,276 L-211,277 L-210,277 L-210,279 L-209,279 L-209,280 L-208,280 L-208,282 L-207,282 L-207,284 L-206,284 L-206,286 L-205,286 L-205,287 L-204,287 L-204,288 L-203,288 L-203,290 L-202,290 L-202,291 L-201,291 L-201,293 L-200,293 L-200,294 L-199,294 L-199,295 L-198,295 L-198,296 L-197,296 L-197,297 L-196,297 L-196,298 L-195,298 L-195,299 L-194,299 L-194,300 L-193,300 L-193,301 L-191,301 L-191,302 L-188,302 L-188,303 L-180,303 L-180,302 L-178,302 L-178,301 L-175,301 L-175,299 L-174,299 L-174,298 L-173,298 L-173,297 L-172,297 L-172,296 L-171,296 L-171,294 L-170,294 L-170,291 L-169,291 L-169,284 L-170,284 L-170,281 L-171,281 L-171,279 L-172,279 L-172,277 L-173,277 L-173,275 L-174,275 L-174,273 L-175,273 L-175,271 L-176,271 L-176,270 L-177,270 L-177,268 L-178,268 L-178,267 L-179,267 L-179,265 L-180,265 L-180,264 L-181,264 L-181,262 L-182,262 L-182,261 L-183,261 L-183,260 L-184,260 L-184,259 L-185,259 L-185,257 L-186,257 L-186,256 L-187,256 L-187,255 L-188,255 L-188,253 L-189,253 L-189,252 L-190,252 L-190,251 L-191,251 L-191,249 L-192,249 L-192,248 L-193,248 L-193,247 L-194,247 L-194,246 L-195,246 L-195,245 L-196,245 L-196,244 L-197,244 L-197,243 L-198,243 L-198,241 L-199,241 L-199,240 L-200,240 L-200,239 L-201,239 L-201,238 L-202,238 L-202,237 L-203,237 L-203,235 L-204,235 L-204,234 L-205,234 L-205,232 L-206,232 L-206,231 L-207,231 L-207,229 L-208,229 L-208,228 L-209,228 L-209,225 L-210,225 L-210,224 L-211,224 L-211,221 L-212,221 L-212,220 L-213,220 L-213,218 L-214,218 L-214,216 L-215,216 L-215,212 L-216,212 L-216,210 L-217,210 L-217,206 L-218,206 L-218,201 L-219,201 L-219,196 L-220,196 L-220,169 L-219,169 L-219,164 L-218,164 L-218,158 L-217,158 L-217,155 L-216,155 L-216,152 L-215,152 L-215,148 L-214,148 L-214,146 L-213,146 L-213,143 L-212,143 L-212,142 L-211,142 L-211,139 L-210,139 L-210,137 L-209,137 L-209,135 L-208,135 L-208,134 L-207,134 L-207,137 L-208,137 L-208,141 L-209,141 L-209,144 L-210,144 L-210,149 L-211,149 L-211,162 L-210,162 L-210,167 L-209,167 L-209,171 L-208,171 L-208,175 L-207,175 L-207,176 L-206,176 L-206,179 L-205,179 L-205,180 L-204,180 L-204,182 L-203,182 L-203,184 L-202,184 L-202,185 L-201,185 L-201,187 L-199,187 L-199,189 L-197,189 L-197,191 L-195,191 L-195,192 L-193,192 L-193,193 L-186,193 L-186,192 L-185,192 L-185,191 L-183,191 L-183,189 L-182,189 L-182,188 L-181,188 L-181,186 L-180,186 L-180,184 L-179,184 L-179,180 L-178,180 L-178,178 L-177,178 L-177,170 L-176,170 L-176,146 L-177,146 L-177,135 L-178,135 L-178,131 L-179,131 L-179,121 L-180,121 L-180,114 L-181,114 L-181,108 L-180,108 L-180,102 L-179,102 L-179,95 L-178,95 L-178,93 L-177,93 L-177,88 L-176,88 L-176,85 L-175,85 L-175,82 L-174,82 L-174,78 L-173,78 L-173,77 L-172,77 L-172,74 L-171,74 L-171,72 L-170,72 L-170,70 L-169,70 L-169,68 L-168,68 L-168,66 L-167,66 L-167,65 L-166,65 L-166,62 L-164,62 L-164,60 L-163,60 L-163,59 L-162,59 L-162,57 L-161,57 L-161,56 L-160,56 L-160,55 L-159,55 L-159,53 L-158,53 L-158,52 L-157,52 L-157,51 L-156,51 L-156,50 L-155,50 L-155,49 L-154,49 L-154,48 L-153,48 L-153,47 L-152,47 L-152,46 L-151,46 L-151,45 L-150,45 L-150,44 L-149,44 L-149,43 L-148,43 L-148,42 L-147,42 L-147,41 L-146,41 L-146,40 L-144,40 L-144,38 L-142,38 L-142,37 L-141,37 L-141,36 L-139,36 L-139,35 L-138,35 L-138,34 L-136,34 L-136,33 L-134,33 L-134,32 L-133,32 L-133,31 L-131,31 L-131,30 L-129,30 L-129,29 L-127,29 L-127,28 L-124,28 L-124,27 L-121,27 L-121,26 L-119,26 L-119,25 L-117,25 L-117,27 L-119,27 L-119,28 L-121,28 L-121,29 L-123,29 L-123,30 L-124,30 L-124,31 L-126,31 L-126,32 L-127,32 L-127,33 L-129,33 L-129,34 L-130,34 L-130,35 L-131,35 L-131,36 L-132,36 L-132,37 L-133,37 L-133,38 L-134,38 L-134,39 L-135,39 L-135,41 L-136,41 L-136,42 L-137,42 L-137,44 L-138,44 L-138,45 L-139,45 L-139,47 L-140,47 L-140,48 L-141,48 L-141,51 L-142,51 L-142,52 L-143,52 L-143,56 L-144,56 L-144,59 L-145,59 L-145,64 L-146,64 L-146,70 L-145,70 L-145,73 L-144,73 L-144,74 L-143,74 L-143,75 L-142,75 L-142,77 L-140,77 L-140,78 L-139,78 L-139,79 L-138,79 L-138,80 L-136,80 L-136,81 L-125,81 L-125,80 L-123,80 L-123,79 L-121,79 L-121,77 L-119,77 L-119,75 L-118,75 L-118,73 L-117,73 L-117,72 L-116,72 L-116,70 L-115,70 L-115,69 L-114,69 L-114,67 L-113,67 L-113,66 L-112,66 L-112,64 L-111,64 L-111,63 L-110,63 L-110,62 L-109,62 L-109,60 L-108,60 L-108,59 L-107,59 L-107,58 L-106,58 L-106,56 L-105,56 L-105,55 L-104,55 L-104,54 L-103,54 L-103,53 L-102,53 L-102,51 L-101,51 L-101,50 L-100,50 L-100,49 L-99,49 L-99,48 L-98,48 L-98,47 L-97,47 L-97,45 L-95,45 L-95,43 L-93,43 L-93,42 L-92,42 L-92,41 L-91,41 L-91,40 L-90,40 L-90,39 L-89,39 L-89,38 L-88,38 L-88,37 L-87,37 L-87,36 L-86,36 L-86,35 L-85,35 L-85,34 L-84,34 L-84,33 L-82,33 L-82,32 L-81,32 L-81,31 L-80,31 L-80,30 L-78,30 L-78,29 L-77,29 L-77,28 L-75,28 L-75,27 L-74,27 L-74,26 L-73,26 L-73,25 L-71,25 L-71,24 L-70,24 L-70,23 L-67,23 L-67,21 L-64,21 L-64,20 L-63,20 L-63,19 L-61,19 L-61,18 L-59,18 L-59,17 L-57,17 L-57,16 L-56,16 L-56,15 L-53,15 L-53,14 L-51,14 L-51,13 L-49,13 L-49,12 L-46,12 L-46,11 L-44,11 L-44,10 L-40,10 L-40,9 L-39,9 L-39,8 L-35,8 L-35,7 L-33,7 L-33,6 L-28,6 L-28,5 L-26,5 L-26,4 L-20,4 L-20,3 L-16,3 L-16,2 L-9,2 L-9,1 L0,1 Z " fill="#745AA2" transform="translate(231,29)"/>
<path d="M0,0 L19,0 L19,1 L28,1 L28,2 L31,2 L31,4 L18,4 L18,5 L10,5 L10,6 L6,6 L6,7 L2,7 L2,8 L-1,8 L-1,9 L-5,9 L-5,10 L-7,10 L-7,11 L-10,11 L-10,12 L-12,12 L-12,13 L-14,13 L-14,14 L-16,14 L-16,15 L-17,15 L-17,16 L-18,16 L-18,17 L-19,17 L-19,19 L-20,19 L-20,23 L-18,23 L-18,24 L-17,24 L-17,25 L-4,25 L-4,24 L-1,24 L-1,23 L4,23 L4,22 L7,22 L7,21 L14,21 L14,20 L19,20 L19,19 L58,19 L58,20 L62,20 L62,21 L68,21 L68,22 L71,22 L71,23 L76,23 L76,24 L77,24 L77,25 L82,25 L82,26 L85,26 L85,27 L88,27 L88,28 L91,28 L91,29 L93,29 L93,30 L96,30 L96,31 L98,31 L98,32 L100,32 L100,33 L102,33 L102,34 L105,34 L105,35 L106,35 L106,36 L109,36 L109,37 L110,37 L110,38 L112,38 L112,39 L113,39 L113,40 L115,40 L115,41 L117,41 L117,42 L118,42 L118,43 L120,43 L120,44 L122,44 L122,45 L124,45 L124,46 L125,46 L125,47 L126,47 L126,48 L127,48 L127,49 L129,49 L129,50 L130,50 L130,51 L131,51 L131,52 L132,52 L132,53 L134,53 L134,54 L135,54 L135,55 L136,55 L136,56 L137,56 L137,57 L138,57 L138,58 L139,58 L139,59 L140,59 L140,60 L142,60 L142,62 L144,62 L144,64 L145,64 L145,65 L146,65 L146,66 L147,66 L147,67 L148,67 L148,68 L149,68 L149,69 L150,69 L150,71 L152,71 L152,73 L153,73 L153,74 L154,74 L154,75 L155,75 L155,77 L156,77 L156,78 L157,78 L157,80 L158,80 L158,81 L159,81 L159,83 L160,83 L160,84 L161,84 L161,86 L162,86 L162,87 L163,87 L163,90 L164,90 L164,91 L165,91 L165,93 L166,93 L166,94 L167,94 L167,97 L168,97 L168,98 L169,98 L169,101 L170,101 L170,103 L171,103 L171,105 L172,105 L172,109 L173,109 L173,110 L174,110 L174,114 L175,114 L175,116 L176,116 L176,120 L177,120 L177,122 L178,122 L178,126 L179,126 L179,130 L180,130 L180,137 L181,137 L181,139 L182,139 L182,148 L183,148 L183,155 L184,155 L184,159 L183,159 L183,160 L182,160 L182,159 L181,159 L181,149 L180,149 L180,146 L179,146 L179,140 L178,140 L178,137 L177,137 L177,133 L176,133 L176,131 L175,131 L175,128 L174,128 L174,125 L173,125 L173,122 L172,122 L172,119 L171,119 L171,117 L170,117 L170,115 L169,115 L169,113 L168,113 L168,111 L167,111 L167,109 L166,109 L166,106 L164,106 L164,103 L163,103 L163,102 L162,102 L162,100 L161,100 L161,99 L160,99 L160,97 L159,97 L159,96 L158,96 L158,94 L157,94 L157,92 L156,92 L156,91 L155,91 L155,89 L154,89 L154,88 L153,88 L153,87 L152,87 L152,86 L151,86 L151,85 L150,85 L150,83 L149,83 L149,82 L148,82 L148,81 L147,81 L147,80 L146,80 L146,79 L145,79 L145,78 L144,78 L144,76 L142,76 L142,74 L140,74 L140,72 L138,72 L138,70 L136,70 L136,69 L135,69 L135,68 L134,68 L134,67 L133,67 L133,66 L132,66 L132,65 L131,65 L131,64 L129,64 L129,63 L128,63 L128,62 L127,62 L127,61 L125,61 L125,59 L123,59 L123,58 L122,58 L122,57 L120,57 L120,56 L119,56 L119,55 L117,55 L117,54 L116,54 L116,53 L114,53 L114,52 L112,52 L112,51 L110,51 L110,50 L108,50 L108,49 L107,49 L107,48 L105,48 L105,47 L103,47 L103,46 L101,46 L101,45 L100,45 L100,44 L97,44 L97,43 L95,43 L95,42 L92,42 L92,41 L89,41 L89,40 L86,40 L86,39 L84,39 L84,38 L81,38 L81,37 L77,37 L77,36 L74,36 L74,35 L68,35 L68,34 L65,34 L65,33 L57,33 L57,32 L51,32 L51,31 L26,31 L26,32 L21,32 L21,33 L12,33 L12,34 L9,34 L9,35 L4,35 L4,36 L0,36 L0,37 L-3,37 L-3,38 L-6,38 L-6,39 L-9,39 L-9,40 L-12,40 L-12,41 L-15,41 L-15,42 L-18,42 L-18,43 L-20,43 L-20,44 L-22,44 L-22,45 L-24,45 L-24,46 L-26,46 L-26,47 L-28,47 L-28,48 L-30,48 L-30,49 L-31,49 L-31,50 L-33,50 L-33,51 L-35,51 L-35,52 L-37,52 L-37,53 L-38,53 L-38,54 L-40,54 L-40,55 L-42,55 L-42,56 L-43,56 L-43,57 L-44,57 L-44,58 L-46,58 L-46,59 L-48,59 L-48,61 L-50,61 L-50,62 L-51,62 L-51,63 L-52,63 L-52,64 L-53,64 L-53,65 L-55,65 L-55,66 L-56,66 L-56,67 L-57,67 L-57,68 L-58,68 L-58,69 L-59,69 L-59,70 L-61,70 L-61,72 L-63,72 L-63,74 L-65,74 L-65,76 L-66,76 L-66,77 L-67,77 L-67,78 L-68,78 L-68,79 L-69,79 L-69,80 L-70,80 L-70,81 L-71,81 L-71,82 L-72,82 L-72,84 L-73,84 L-73,85 L-74,85 L-74,86 L-75,86 L-75,87 L-76,87 L-76,89 L-77,89 L-77,90 L-78,90 L-78,91 L-79,91 L-79,93 L-80,93 L-80,94 L-81,94 L-81,96 L-82,96 L-82,97 L-83,97 L-83,99 L-84,99 L-84,100 L-85,100 L-85,102 L-86,102 L-86,104 L-87,104 L-87,106 L-88,106 L-88,107 L-89,107 L-89,109 L-90,109 L-90,111 L-91,111 L-91,113 L-92,113 L-92,115 L-93,115 L-93,118 L-94,118 L-94,121 L-95,121 L-95,122 L-96,122 L-96,126 L-97,126 L-97,128 L-98,128 L-98,131 L-99,131 L-99,134 L-100,134 L-100,139 L-101,139 L-101,142 L-102,142 L-102,147 L-103,147 L-103,151 L-104,151 L-104,160 L-105,160 L-105,188 L-104,188 L-104,197 L-103,197 L-103,201 L-102,201 L-102,206 L-101,206 L-101,210 L-100,210 L-100,214 L-99,214 L-99,217 L-98,217 L-98,220 L-97,220 L-97,223 L-96,223 L-96,226 L-95,226 L-95,228 L-94,228 L-94,230 L-93,230 L-93,233 L-92,233 L-92,235 L-91,235 L-91,237 L-90,237 L-90,239 L-89,239 L-89,241 L-88,241 L-88,242 L-87,242 L-87,245 L-86,245 L-86,246 L-85,246 L-85,248 L-84,248 L-84,249 L-83,249 L-83,251 L-82,251 L-82,252 L-81,252 L-81,254 L-80,254 L-80,255 L-79,255 L-79,257 L-78,257 L-78,258 L-77,258 L-77,260 L-76,260 L-76,261 L-75,261 L-75,262 L-74,262 L-74,263 L-73,263 L-73,264 L-72,264 L-72,266 L-71,266 L-71,267 L-70,267 L-70,268 L-69,268 L-69,269 L-68,269 L-68,271 L-66,271 L-66,273 L-65,273 L-65,274 L-64,274 L-64,275 L-63,275 L-63,276 L-62,276 L-62,277 L-61,277 L-61,278 L-59,278 L-59,279 L-58,279 L-58,280 L-57,280 L-57,281 L-56,281 L-56,282 L-55,282 L-55,283 L-54,283 L-54,284 L-52,284 L-52,285 L-51,285 L-51,286 L-50,286 L-50,287 L-49,287 L-49,288 L-47,288 L-47,289 L-46,289 L-46,290 L-44,290 L-44,291 L-43,291 L-43,292 L-42,292 L-42,293 L-40,293 L-40,294 L-39,294 L-39,295 L-37,295 L-37,296 L-35,296 L-35,297 L-33,297 L-33,298 L-32,298 L-32,299 L-30,299 L-30,300 L-29,300 L-29,301 L-26,301 L-26,302 L-25,302 L-25,303 L-22,303 L-22,304 L-20,304 L-20,305 L-17,305 L-17,306 L-15,306 L-15,307 L-13,307 L-13,308 L-10,308 L-10,309 L-7,309 L-7,310 L-3,310 L-3,311 L-1,311 L-1,312 L4,312 L4,313 L6,313 L6,314 L13,314 L13,315 L16,315 L16,316 L9,316 L9,315 L-2,315 L-2,314 L-5,314 L-5,313 L-12,313 L-12,312 L-16,312 L-16,311 L-21,311 L-21,310 L-23,310 L-23,309 L-26,309 L-26,308 L-29,308 L-29,307 L-32,307 L-32,306 L-35,306 L-35,305 L-37,305 L-37,304 L-39,304 L-39,303 L-42,303 L-42,302 L-45,302 L-45,301 L-47,301 L-47,300 L-48,300 L-48,299 L-51,299 L-51,298 L-54,298 L-54,297 L-55,297 L-55,296 L-58,296 L-58,295 L-59,295 L-59,294 L-61,294 L-61,293 L-62,293 L-62,292 L-63,292 L-63,291 L-65,291 L-65,290 L-68,290 L-68,289 L-69,289 L-69,288 L-70,288 L-70,287 L-71,287 L-71,286 L-73,286 L-73,285 L-74,285 L-74,284 L-75,284 L-75,283 L-78,283 L-78,282 L-79,282 L-79,281 L-80,281 L-80,280 L-81,280 L-81,279 L-82,279 L-82,278 L-84,278 L-84,277 L-85,277 L-85,276 L-86,276 L-86,275 L-87,275 L-87,274 L-88,274 L-88,273 L-89,273 L-89,272 L-90,272 L-90,271 L-92,271 L-92,270 L-93,270 L-93,269 L-94,269 L-94,268 L-95,268 L-95,267 L-96,267 L-96,266 L-97,266 L-97,264 L-98,264 L-98,263 L-99,263 L-99,262 L-100,262 L-100,261 L-101,261 L-101,260 L-102,260 L-102,259 L-103,259 L-103,258 L-104,258 L-104,257 L-105,257 L-105,256 L-106,256 L-106,254 L-107,254 L-107,253 L-108,253 L-108,252 L-109,252 L-109,251 L-110,251 L-110,250 L-111,250 L-111,248 L-112,248 L-112,247 L-113,247 L-113,245 L-114,245 L-114,243 L-115,243 L-115,242 L-116,242 L-116,241 L-118,241 L-118,239 L-119,239 L-119,236 L-120,236 L-120,235 L-121,235 L-121,233 L-122,233 L-122,232 L-123,232 L-123,230 L-124,230 L-124,229 L-125,229 L-125,227 L-126,227 L-126,226 L-127,226 L-127,224 L-128,224 L-128,221 L-129,221 L-129,219 L-130,219 L-130,217 L-132,217 L-132,214 L-133,214 L-133,213 L-134,213 L-134,211 L-135,211 L-135,208 L-136,208 L-136,205 L-137,205 L-137,203 L-138,203 L-138,201 L-139,201 L-139,199 L-140,199 L-140,197 L-141,197 L-141,195 L-142,195 L-142,193 L-143,193 L-143,189 L-144,189 L-144,187 L-145,187 L-145,182 L-146,182 L-146,181 L-147,181 L-147,176 L-148,176 L-148,173 L-149,173 L-149,171 L-150,171 L-150,167 L-151,167 L-151,163 L-152,163 L-152,159 L-153,159 L-153,151 L-154,151 L-154,149 L-155,149 L-155,141 L-156,141 L-156,136 L-157,136 L-157,127 L-158,127 L-158,99 L-157,99 L-157,88 L-156,88 L-156,81 L-155,81 L-155,78 L-154,78 L-154,74 L-153,74 L-153,69 L-152,69 L-152,67 L-151,67 L-151,64 L-150,64 L-150,61 L-149,61 L-149,59 L-148,59 L-148,55 L-147,55 L-147,54 L-146,54 L-146,51 L-147,51 L-147,50 L-149,50 L-149,46 L-151,46 L-151,45 L-150,45 L-150,44 L-149,44 L-149,43 L-148,43 L-148,42 L-147,42 L-147,41 L-146,41 L-146,40 L-144,40 L-144,38 L-142,38 L-142,37 L-141,37 L-141,36 L-139,36 L-139,35 L-138,35 L-138,34 L-136,34 L-136,33 L-134,33 L-134,32 L-133,32 L-133,31 L-131,31 L-131,30 L-129,30 L-129,29 L-127,29 L-127,28 L-124,28 L-124,27 L-121,27 L-121,26 L-119,26 L-119,25 L-117,25 L-117,27 L-119,27 L-119,28 L-121,28 L-121,29 L-123,29 L-123,30 L-124,30 L-124,31 L-126,31 L-126,32 L-127,32 L-127,33 L-129,33 L-129,34 L-130,34 L-130,35 L-131,35 L-131,36 L-132,36 L-132,37 L-133,37 L-133,38 L-134,38 L-134,39 L-135,39 L-135,41 L-136,41 L-136,42 L-137,42 L-137,44 L-138,44 L-138,45 L-139,45 L-139,47 L-140,47 L-140,48 L-141,48 L-141,51 L-142,51 L-142,52 L-143,52 L-143,56 L-144,56 L-144,59 L-145,59 L-145,64 L-146,64 L-146,70 L-145,70 L-145,73 L-144,73 L-144,74 L-143,74 L-143,75 L-142,75 L-142,77 L-140,77 L-140,78 L-139,78 L-139,79 L-138,79 L-138,80 L-136,80 L-136,81 L-125,81 L-125,80 L-123,80 L-123,79 L-121,79 L-121,77 L-119,77 L-119,75 L-118,75 L-118,73 L-117,73 L-117,72 L-116,72 L-116,70 L-115,70 L-115,69 L-114,69 L-114,67 L-113,67 L-113,66 L-112,66 L-112,64 L-111,64 L-111,63 L-110,63 L-110,62 L-109,62 L-109,60 L-108,60 L-108,59 L-107,59 L-107,58 L-106,58 L-106,56 L-105,56 L-105,55 L-104,55 L-104,54 L-103,54 L-103,53 L-102,53 L-102,51 L-101,51 L-101,50 L-100,50 L-100,49 L-99,49 L-99,48 L-98,48 L-98,47 L-97,47 L-97,45 L-95,45 L-95,43 L-93,43 L-93,42 L-92,42 L-92,41 L-91,41 L-91,40 L-90,40 L-90,39 L-89,39 L-89,38 L-88,38 L-88,37 L-87,37 L-87,36 L-86,36 L-86,35 L-85,35 L-85,34 L-84,34 L-84,33 L-82,33 L-82,32 L-81,32 L-81,31 L-80,31 L-80,30 L-78,30 L-78,29 L-77,29 L-77,28 L-75,28 L-75,27 L-74,27 L-74,26 L-73,26 L-73,25 L-71,25 L-71,24 L-70,24 L-70,23 L-67,23 L-67,21 L-64,21 L-64,20 L-63,20 L-63,19 L-61,19 L-61,18 L-59,18 L-59,17 L-57,17 L-57,16 L-56,16 L-56,15 L-53,15 L-53,14 L-51,14 L-51,13 L-49,13 L-49,12 L-46,12 L-46,11 L-44,11 L-44,10 L-40,10 L-40,9 L-39,9 L-39,8 L-35,8 L-35,7 L-33,7 L-33,6 L-28,6 L-28,5 L-26,5 L-26,4 L-20,4 L-20,3 L-16,3 L-16,2 L-9,2 L-9,1 L0,1 Z " fill="#A176B2" transform="translate(231,29)"/>
<path d="M0,0 L1,0 L1,1 L3,1 L3,2 L6,2 L6,3 L7,3 L7,4 L10,4 L10,5 L11,5 L11,6 L13,6 L13,7 L14,7 L14,8 L16,8 L16,9 L18,9 L18,10 L19,10 L19,11 L21,11 L21,12 L23,12 L23,13 L25,13 L25,14 L26,14 L26,15 L27,15 L27,16 L28,16 L28,17 L30,17 L30,18 L31,18 L31,19 L32,19 L32,20 L33,20 L33,21 L35,21 L35,22 L36,22 L36,23 L37,23 L37,24 L38,24 L38,25 L39,25 L39,26 L40,26 L40,27 L41,27 L41,28 L43,28 L43,30 L45,30 L45,32 L46,32 L46,33 L47,33 L47,34 L48,34 L48,35 L49,35 L49,36 L50,36 L50,37 L51,37 L51,39 L53,39 L53,41 L54,41 L54,42 L55,42 L55,43 L56,43 L56,45 L57,45 L57,46 L58,46 L58,48 L59,48 L59,49 L60,49 L60,51 L61,51 L61,52 L62,52 L62,54 L63,54 L63,55 L64,55 L64,58 L65,58 L65,59 L66,59 L66,61 L67,61 L67,62 L68,62 L68,65 L69,65 L69,66 L70,66 L70,69 L71,69 L71,71 L72,71 L72,73 L73,73 L73,77 L74,77 L74,78 L75,78 L75,82 L76,82 L76,84 L77,84 L77,88 L78,88 L78,90 L79,90 L79,94 L80,94 L80,98 L81,98 L81,105 L82,105 L82,107 L83,107 L83,116 L84,116 L84,123 L85,123 L85,127 L84,127 L84,128 L83,128 L83,127 L82,127 L82,117 L81,117 L81,114 L80,114 L80,108 L79,108 L79,105 L78,105 L78,101 L77,101 L77,99 L76,99 L76,96 L75,96 L75,93 L74,93 L74,90 L73,90 L73,87 L72,87 L72,85 L71,85 L71,83 L70,83 L70,81 L69,81 L69,79 L68,79 L68,77 L67,77 L67,74 L65,74 L65,71 L64,71 L64,70 L63,70 L63,68 L62,68 L62,67 L61,67 L61,65 L60,65 L60,64 L59,64 L59,62 L58,62 L58,60 L57,60 L57,59 L56,59 L56,57 L55,57 L55,56 L54,56 L54,55 L53,55 L53,54 L52,54 L52,53 L51,53 L51,51 L50,51 L50,50 L49,50 L49,49 L48,49 L48,48 L47,48 L47,47 L46,47 L46,46 L45,46 L45,44 L43,44 L43,42 L41,42 L41,40 L39,40 L39,38 L37,38 L37,37 L36,37 L36,36 L35,36 L35,35 L34,35 L34,34 L33,34 L33,33 L32,33 L32,32 L30,32 L30,31 L29,31 L29,30 L28,30 L28,29 L26,29 L26,27 L24,27 L24,26 L23,26 L23,25 L21,25 L21,24 L20,24 L20,23 L18,23 L18,22 L17,22 L17,21 L15,21 L15,20 L13,20 L13,19 L11,19 L11,18 L9,18 L9,17 L8,17 L8,16 L6,16 L6,15 L4,15 L4,14 L2,14 L2,13 L1,13 L1,12 L-2,12 L-2,11 L-4,11 L-4,10 L-7,10 L-7,9 L-10,9 L-10,8 L-13,8 L-13,7 L-15,7 L-15,5 L-10,5 L-10,6 L-5,6 L-5,5 L-2,5 L-2,4 L-3,4 L-3,3 L-4,3 L-4,2 L0,2 Z " fill="#A682B4" transform="translate(330,61)"/>
<path d="M0,0 L2,0 L2,2 L3,2 L3,4 L4,4 L4,6 L5,6 L5,8 L6,8 L6,9 L7,9 L7,11 L8,11 L8,12 L9,12 L9,13 L10,13 L10,14 L11,14 L11,15 L12,15 L12,16 L13,16 L13,17 L16,17 L16,18 L17,18 L17,19 L20,19 L20,20 L22,20 L22,22 L21,22 L21,23 L18,23 L18,24 L16,24 L16,25 L14,25 L14,26 L13,26 L13,27 L11,27 L11,29 L9,29 L9,30 L8,30 L8,31 L7,31 L7,33 L6,33 L6,34 L5,34 L5,36 L4,36 L4,38 L3,38 L3,41 L2,41 L2,43 L1,43 L1,42 L0,42 L0,40 L-1,40 L-1,37 L-2,37 L-2,36 L-3,36 L-3,34 L-4,34 L-4,33 L-5,33 L-5,31 L-6,31 L-6,30 L-7,30 L-7,29 L-8,29 L-8,28 L-9,28 L-9,27 L-11,27 L-11,26 L-12,26 L-12,25 L-14,25 L-14,24 L-16,24 L-16,23 L-18,23 L-18,22 L-20,22 L-20,20 L-18,20 L-18,19 L-14,19 L-14,17 L-11,17 L-11,16 L-10,16 L-10,15 L-9,15 L-9,14 L-8,14 L-8,13 L-7,13 L-7,12 L-6,12 L-6,11 L-5,11 L-5,9 L-3,9 L-3,6 L-2,6 L-2,5 L-1,5 L-1,2 L0,2 Z " fill="#7962A5" transform="translate(471,175)"/>
<path d="M0,0 L1,0 L1,2 L2,2 L2,3 L3,3 L3,4 L4,4 L4,6 L5,6 L5,7 L6,7 L6,9 L7,9 L7,10 L8,10 L8,12 L9,12 L9,13 L10,13 L10,15 L11,15 L11,16 L12,16 L12,19 L13,19 L13,20 L14,20 L14,22 L15,22 L15,23 L16,23 L16,26 L17,26 L17,27 L18,27 L18,30 L19,30 L19,32 L20,32 L20,34 L21,34 L21,38 L22,38 L22,39 L23,39 L23,43 L24,43 L24,45 L25,45 L25,49 L26,49 L26,51 L27,51 L27,55 L28,55 L28,59 L29,59 L29,66 L30,66 L30,68 L31,68 L31,77 L32,77 L32,84 L33,84 L33,88 L32,88 L32,89 L31,89 L31,88 L30,88 L30,78 L29,78 L29,75 L28,75 L28,69 L27,69 L27,66 L26,66 L26,62 L25,62 L25,60 L24,60 L24,57 L23,57 L23,54 L22,54 L22,51 L21,51 L21,48 L20,48 L20,46 L19,46 L19,44 L18,44 L18,42 L17,42 L17,40 L16,40 L16,38 L15,38 L15,35 L13,35 L13,32 L12,32 L12,31 L11,31 L11,29 L10,29 L10,28 L9,28 L9,26 L8,26 L8,25 L7,25 L7,23 L6,23 L6,21 L5,21 L5,20 L4,20 L4,18 L3,18 L3,17 L2,17 L2,16 L1,16 L1,15 L0,15 L0,14 L-1,14 L-1,12 L-2,12 L-2,11 L-3,11 L-3,10 L-4,10 L-4,9 L-5,9 L-5,8 L-6,8 L-6,7 L-7,7 L-7,5 L-9,5 L-9,4 L-7,4 L-7,3 L-5,3 L-5,4 L-2,4 L-2,5 L-1,5 L-1,6 L0,6 Z " fill="#AB8CB7" transform="translate(382,100)"/>
<path d="M0,0 L1,0 L1,2 L2,2 L2,1 L3,1 L3,2 L4,2 L4,4 L5,4 L5,5 L7,5 L7,7 L6,7 L6,11 L8,11 L8,9 L10,9 L10,10 L11,10 L11,11 L10,11 L10,12 L8,12 L8,13 L7,13 L7,14 L4,14 L4,15 L3,15 L3,16 L-1,16 L-1,17 L-3,17 L-3,18 L-5,18 L-5,19 L-8,19 L-8,20 L-12,20 L-12,21 L-15,21 L-15,22 L-21,22 L-21,23 L-29,23 L-29,24 L-36,24 L-36,23 L-33,23 L-33,22 L-30,22 L-30,21 L-25,21 L-25,20 L-23,20 L-23,19 L-20,19 L-20,18 L-18,18 L-18,17 L-16,17 L-16,16 L-15,16 L-15,15 L-13,15 L-13,14 L-12,14 L-12,13 L-11,13 L-11,12 L-9,12 L-9,11 L-8,11 L-8,10 L-7,10 L-7,9 L-6,9 L-6,8 L-5,8 L-5,6 L-3,6 L-3,4 L-2,4 L-2,3 L-1,3 L-1,2 L0,2 Z " fill="#806AA7" transform="translate(266,436)"/>
<path d="M0,0 L2,0 L2,2 L0,2 L0,3 L-2,3 L-2,4 L-4,4 L-4,5 L-5,5 L-5,6 L-7,6 L-7,7 L-8,7 L-8,8 L-10,8 L-10,9 L-11,9 L-11,10 L-12,10 L-12,11 L-13,11 L-13,12 L-14,12 L-14,13 L-15,13 L-15,14 L-16,14 L-16,16 L-17,16 L-17,17 L-18,17 L-18,19 L-19,19 L-19,20 L-20,20 L-20,22 L-21,22 L-21,23 L-22,23 L-22,26 L-24,26 L-24,25 L-25,25 L-25,26 L-26,26 L-26,27 L-27,27 L-27,26 L-28,26 L-28,25 L-30,25 L-30,21 L-32,21 L-32,20 L-31,20 L-31,19 L-30,19 L-30,18 L-29,18 L-29,17 L-28,17 L-28,16 L-27,16 L-27,15 L-25,15 L-25,13 L-23,13 L-23,12 L-22,12 L-22,11 L-20,11 L-20,10 L-19,10 L-19,9 L-17,9 L-17,8 L-15,8 L-15,7 L-14,7 L-14,6 L-12,6 L-12,5 L-10,5 L-10,4 L-8,4 L-8,3 L-5,3 L-5,2 L-2,2 L-2,1 L0,1 Z " fill="#8066A5" transform="translate(112,54)"/>
<path d="M0,0 L2,0 L2,2 L3,2 L3,3 L4,3 L4,5 L5,5 L5,6 L6,6 L6,8 L7,8 L7,10 L8,10 L8,12 L9,12 L9,13 L10,13 L10,14 L11,14 L11,16 L12,16 L12,17 L13,17 L13,19 L14,19 L14,20 L15,20 L15,21 L16,21 L16,22 L17,22 L17,23 L18,23 L18,24 L16,24 L16,23 L13,23 L13,27 L12,27 L12,29 L11,29 L11,28 L8,28 L8,30 L9,30 L9,29 L10,29 L10,31 L9,31 L9,33 L8,33 L8,31 L7,31 L7,27 L6,27 L6,26 L5,26 L5,22 L4,22 L4,19 L3,19 L3,14 L2,14 L2,11 L1,11 L1,3 L0,3 Z " fill="#806BA6" transform="translate(17,303)"/>
<path d="M0,0 L19,0 L19,1 L28,1 L28,2 L31,2 L31,4 L18,4 L18,5 L10,5 L10,6 L6,6 L6,7 L2,7 L2,8 L-1,8 L-1,7 L0,7 L0,5 L-2,5 L-2,4 L-3,4 L-3,3 L-5,3 L-5,4 L-6,4 L-6,3 L-15,3 L-15,4 L-11,4 L-11,5 L-12,5 L-12,6 L-13,6 L-13,7 L-16,7 L-16,6 L-17,6 L-17,4 L-20,4 L-20,3 L-16,3 L-16,2 L-9,2 L-9,1 L0,1 Z " fill="#B293BD" transform="translate(231,29)"/>
<path d="M0,0 L2,0 L2,4 L3,4 L3,6 L4,6 L4,10 L5,10 L5,12 L6,12 L6,16 L7,16 L7,20 L8,20 L8,27 L9,27 L9,29 L10,29 L10,38 L11,38 L11,45 L12,45 L12,49 L11,49 L11,50 L10,50 L10,49 L9,49 L9,39 L8,39 L8,36 L7,36 L7,30 L6,30 L6,27 L5,27 L5,23 L4,23 L4,21 L3,21 L3,18 L2,18 L2,15 L1,15 L1,12 L0,12 L0,9 L-1,9 L-1,7 L-2,7 L-2,5 L-3,5 L-3,3 L-4,3 L-4,2 L-2,2 L-2,4 L0,4 Z " fill="#AC8EB5" transform="translate(403,139)"/>
<path d="M0,0 L1,0 L1,1 L0,1 Z M-4,1 L0,1 L0,2 L-1,2 L-1,3 L-2,3 L-2,4 L-3,4 L-3,5 L-2,5 L-2,7 L-4,7 L-4,9 L-3,9 L-3,10 L-1,10 L-1,11 L1,11 L1,12 L0,12 L0,13 L-1,13 L-1,14 L-13,14 L-13,13 L-15,13 L-15,12 L-16,12 L-16,11 L-18,11 L-18,10 L-19,10 L-19,8 L-16,8 L-16,7 L-14,7 L-14,6 L-11,6 L-11,5 L-10,5 L-10,4 L-7,4 L-7,3 L-6,3 L-6,2 L-4,2 Z " fill="#725B9E" transform="translate(361,279)"/>
<path d="M0,0 L1,0 L1,1 L3,1 L3,2 L6,2 L6,3 L8,3 L8,4 L10,4 L10,5 L13,5 L13,6 L16,6 L16,7 L20,7 L20,8 L22,8 L22,9 L27,9 L27,10 L29,10 L29,11 L36,11 L36,12 L39,12 L39,13 L32,13 L32,12 L21,12 L21,11 L18,11 L18,10 L11,10 L11,9 L7,9 L7,8 L2,8 L2,7 L0,7 L0,6 L-1,6 L-1,3 L0,3 Z " fill="#A58CB6" transform="translate(208,332)"/>
<path d="M0,0 L1,0 L1,3 L0,3 L0,7 L-1,7 L-1,10 L-2,10 L-2,15 L-3,15 L-3,28 L-2,28 L-2,33 L-1,33 L-1,37 L-2,37 L-2,35 L-3,35 L-3,34 L-4,34 L-4,30 L-5,30 L-5,28 L-6,28 L-6,31 L-7,31 L-7,30 L-8,30 L-8,28 L-10,28 L-10,24 L-9,24 L-9,21 L-8,21 L-8,18 L-7,18 L-7,14 L-6,14 L-6,12 L-5,12 L-5,9 L-4,9 L-4,8 L-3,8 L-3,5 L-2,5 L-2,3 L-1,3 L-1,1 L0,1 Z " fill="#75609E" transform="translate(23,163)"/>
<path d="M0,0 L1,0 L1,1 L3,1 L3,2 L4,2 L4,3 L6,3 L6,4 L8,4 L8,5 L11,5 L11,6 L12,6 L12,7 L16,7 L16,8 L19,8 L19,9 L23,9 L23,10 L38,10 L38,11 L24,11 L24,12 L23,12 L23,13 L21,13 L21,16 L22,16 L22,17 L20,17 L20,16 L19,16 L19,15 L17,15 L17,14 L15,14 L15,13 L13,13 L13,12 L12,12 L12,11 L10,11 L10,10 L9,10 L9,9 L8,9 L8,8 L6,8 L6,7 L5,7 L5,6 L4,6 L4,5 L3,5 L3,4 L2,4 L2,3 L1,3 L1,2 L0,2 Z " fill="#9788B6" transform="translate(87,420)"/>
<path d="M0,0 L9,0 L9,1 L8,1 L8,2 L6,2 L6,3 L3,3 L3,4 L2,4 L2,5 L0,5 L0,6 L-1,6 L-1,7 L-3,7 L-3,8 L-4,8 L-4,9 L-6,9 L-6,10 L-7,10 L-7,11 L-8,11 L-8,12 L-9,12 L-9,10 L-10,10 L-10,8 L-11,8 L-11,7 L-14,7 L-14,6 L-12,6 L-12,5 L-11,5 L-11,4 L-13,4 L-13,3 L-10,3 L-10,2 L-5,2 L-5,1 L0,1 Z " fill="#8776A9" transform="translate(434,225)"/>
<path d="M0,0 L1,0 L1,4 L2,4 L2,1 L3,1 L3,3 L5,3 L5,2 L6,2 L6,6 L5,6 L5,8 L4,8 L4,11 L3,11 L3,13 L2,13 L2,15 L1,15 L1,17 L0,17 L0,19 L-1,19 L-1,20 L-2,20 L-2,22 L-3,22 L-3,24 L-4,24 L-4,25 L-5,25 L-5,24 L-6,24 L-6,23 L-5,23 L-5,20 L-4,20 L-4,17 L-3,17 L-3,15 L-2,15 L-2,10 L-1,10 L-1,7 L0,7 Z " fill="#725D9B" transform="translate(358,401)"/>
<path d="M0,0 L2,0 L2,2 L0,2 L0,3 L-2,3 L-2,4 L-4,4 L-4,5 L-5,5 L-5,6 L-7,6 L-7,7 L-8,7 L-8,8 L-10,8 L-10,9 L-11,9 L-11,10 L-12,10 L-12,11 L-13,11 L-13,12 L-14,12 L-14,13 L-15,13 L-15,14 L-16,14 L-16,16 L-17,16 L-17,17 L-18,17 L-18,16 L-19,16 L-19,15 L-17,15 L-17,13 L-21,13 L-21,14 L-24,14 L-24,15 L-25,15 L-25,13 L-23,13 L-23,12 L-22,12 L-22,11 L-20,11 L-20,10 L-19,10 L-19,9 L-17,9 L-17,8 L-15,8 L-15,7 L-14,7 L-14,6 L-12,6 L-12,5 L-10,5 L-10,4 L-8,4 L-8,3 L-5,3 L-5,2 L-2,2 L-2,1 L0,1 Z " fill="#9586B2" transform="translate(112,54)"/>
<path d="M0,0 L1,0 L1,7 L2,7 L2,13 L1,13 L1,18 L0,18 L0,24 L-1,24 L-1,25 L-2,25 L-2,28 L-3,28 L-3,29 L-5,29 L-5,22 L-6,22 L-6,21 L-7,21 L-7,19 L-5,19 L-5,20 L-4,20 L-4,18 L-5,18 L-5,16 L-4,16 L-4,15 L-1,15 L-1,14 L0,14 Z " fill="#8978A9" transform="translate(413,275)"/>
<path d="M0,0 L1,0 L1,2 L2,2 L2,3 L3,3 L3,4 L4,4 L4,6 L5,6 L5,7 L6,7 L6,9 L4,9 L4,10 L2,10 L2,12 L0,12 L0,14 L-1,14 L-1,12 L-2,12 L-2,11 L-3,11 L-3,10 L-4,10 L-4,9 L-5,9 L-5,8 L-6,8 L-6,7 L-7,7 L-7,5 L-9,5 L-9,4 L-7,4 L-7,3 L-5,3 L-5,4 L-2,4 L-2,5 L-1,5 L-1,6 L0,6 Z " fill="#AF8DBA" transform="translate(382,100)"/>
<path d="M0,0 L4,0 L4,3 L5,3 L5,5 L6,5 L6,6 L8,6 L8,4 L9,4 L9,6 L11,6 L11,5 L13,5 L13,3 L15,3 L15,6 L14,6 L14,7 L13,7 L13,9 L12,9 L12,11 L11,11 L11,14 L10,14 L10,16 L9,16 L9,15 L8,15 L8,13 L7,13 L7,10 L6,10 L6,9 L5,9 L5,7 L4,7 L4,6 L3,6 L3,4 L2,4 L2,3 L1,3 L1,2 L0,2 Z " fill="#806CA8" transform="translate(463,202)"/>
<path d="M0,0 L1,0 L1,7 L2,7 L2,9 L3,9 L3,18 L4,18 L4,25 L5,25 L5,29 L4,29 L4,30 L3,30 L3,29 L2,29 L2,19 L1,19 L1,16 L0,16 L0,10 L-1,10 L-1,7 L-2,7 L-2,3 L-3,3 L-3,1 L-2,1 L-2,2 L-1,2 L-1,1 L0,1 Z " fill="#9C8AA6" transform="translate(410,159)"/>
<path d="M0,0 L1,0 L1,1 L6,1 L6,0 L7,0 L7,3 L-2,3 L-2,4 L-5,4 L-5,5 L-10,5 L-10,6 L-14,6 L-14,7 L-17,7 L-17,8 L-20,8 L-20,9 L-23,9 L-23,10 L-26,10 L-26,9 L-24,9 L-24,7 L-23,7 L-23,6 L-17,6 L-17,5 L-15,5 L-15,4 L-10,4 L-10,3 L-5,3 L-5,2 L-1,2 L-1,1 L0,1 Z " fill="#B496BC" transform="translate(245,59)"/>
<path d="M0,0 L2,0 L2,1 L1,1 L1,2 L0,2 L0,7 L-6,7 L-6,8 L-14,8 L-14,9 L-21,9 L-21,8 L-18,8 L-18,7 L-15,7 L-15,6 L-10,6 L-10,5 L-8,5 L-8,4 L-5,4 L-5,3 L-3,3 L-3,2 L-1,2 L-1,1 L0,1 Z " fill="#887E9F" transform="translate(251,451)"/>
<path d="M0,0 L19,0 L19,1 L28,1 L28,2 L31,2 L31,4 L18,4 L18,3 L12,3 L12,2 L18,2 L18,1 L0,1 Z " fill="#C9B8CF" transform="translate(231,29)"/>
<path d="M0,0 L2,0 L2,2 L3,2 L3,4 L4,4 L4,6 L5,6 L5,8 L6,8 L6,9 L7,9 L7,11 L6,11 L6,10 L5,10 L5,11 L4,11 L4,12 L3,12 L3,13 L-1,13 L-1,14 L-2,14 L-2,15 L-4,15 L-4,14 L-3,14 L-3,13 L-2,13 L-2,12 L-1,12 L-1,11 L0,11 L0,8 L2,8 L2,6 L0,6 L0,5 L-1,5 L-1,2 L0,2 Z " fill="#8874AA" transform="translate(471,175)"/>
<path d="M0,0 L1,0 L1,1 L2,1 L2,3 L1,3 L1,5 L-1,5 L-1,7 L-2,7 L-2,8 L-3,8 L-3,9 L-4,9 L-4,10 L-5,10 L-5,11 L-6,11 L-6,12 L-7,12 L-7,13 L-8,13 L-8,15 L-9,15 L-9,16 L-10,16 L-10,17 L-11,17 L-11,18 L-12,18 L-12,15 L-11,15 L-11,14 L-10,14 L-10,11 L-8,11 L-8,10 L-7,10 L-7,9 L-6,9 L-6,8 L-5,8 L-5,3 L-3,3 L-3,4 L-1,4 L-1,1 L0,1 Z " fill="#AD8DB6" transform="translate(167,98)"/>
<path d="M0,0 L1,0 L1,2 L2,2 L2,3 L4,3 L4,5 L7,5 L7,6 L11,6 L11,8 L8,8 L8,9 L7,9 L7,10 L5,10 L5,9 L4,9 L4,10 L0,10 L0,8 L-2,8 L-2,7 L1,7 L1,6 L2,6 L2,4 L0,4 L0,2 L-1,2 L-1,1 L0,1 Z " fill="#A075AF" transform="translate(354,77)"/>
<path d="M0,0 L1,0 L1,1 L4,1 L4,2 L5,2 L5,3 L8,3 L8,4 L10,4 L10,6 L9,6 L9,7 L6,7 L6,8 L4,8 L4,9 L2,9 L2,10 L1,10 L1,9 L0,9 L0,8 L2,8 L2,7 L3,7 L3,6 L2,6 L2,4 L0,4 L0,5 L-1,5 L-1,3 L0,3 Z " fill="#8C7CAD" transform="translate(483,191)"/>
<path d="M0,0 L2,0 L2,2 L3,2 L3,3 L4,3 L4,5 L5,5 L5,6 L6,6 L6,8 L7,8 L7,10 L6,10 L6,9 L5,9 L5,12 L3,12 L3,14 L2,14 L2,11 L1,11 L1,3 L0,3 Z " fill="#8574A8" transform="translate(17,303)"/>
<path d="M0,0 L1,0 L1,1 L2,1 L2,2 L3,2 L3,3 L4,3 L4,0 L6,0 L6,2 L7,2 L7,3 L8,3 L8,5 L7,5 L7,4 L6,4 L6,6 L5,6 L5,5 L4,5 L4,4 L3,4 L3,8 L4,8 L4,9 L5,9 L5,10 L4,10 L4,11 L3,11 L3,9 L2,9 L2,8 L1,8 L1,6 L0,6 L0,5 L-1,5 L-1,3 L-2,3 L-2,1 L0,1 Z " fill="#B395BD" transform="translate(390,120)"/>
<path d="M0,0 L1,0 L1,2 L2,2 L2,3 L3,3 L3,5 L2,5 L2,6 L1,6 L1,7 L-1,7 L-1,8 L-2,8 L-2,9 L-3,9 L-3,10 L-5,10 L-5,9 L-6,9 L-6,6 L-5,6 L-5,5 L-4,5 L-4,4 L-3,4 L-3,3 L-2,3 L-2,2 L-1,2 L-1,1 L0,1 Z " fill="#826DA4" transform="translate(289,432)"/>
<path d="M0,0 L20,0 L20,1 L6,1 L6,2 L5,2 L5,3 L3,3 L3,6 L4,6 L4,7 L2,7 L2,6 L1,6 L1,5 L-1,5 L-1,1 L0,1 Z " fill="#8874AC" transform="translate(105,430)"/>
<path d="M0,0 L1,0 L1,1 L3,1 L3,2 L6,2 L6,3 L8,3 L8,4 L10,4 L10,5 L13,5 L13,6 L10,6 L10,7 L9,7 L9,6 L-1,6 L-1,3 L0,3 Z " fill="#AE8AB9" transform="translate(208,332)"/>
<path d="M0,0 L3,0 L3,1 L4,1 L4,9 L3,9 L3,8 L0,8 L0,6 L-1,6 L-1,5 L-4,5 L-4,3 L-2,3 L-2,1 L0,1 Z " fill="#A17AAE" transform="translate(386,109)"/>
<path d="M0,0 L1,0 L1,2 L2,2 L2,3 L3,3 L3,4 L4,4 L4,6 L5,6 L5,7 L6,7 L6,9 L7,9 L7,10 L8,10 L8,11 L9,11 L9,12 L10,12 L10,13 L11,13 L11,14 L9,14 L9,13 L6,13 L6,14 L4,14 L4,11 L5,11 L5,10 L4,10 L4,7 L2,7 L2,6 L1,6 L1,5 L0,5 Z " fill="#9182B0" transform="translate(24,313)"/>
<path d="M0,0 L1,0 L1,4 L3,4 L3,3 L4,3 L4,5 L3,5 L3,7 L2,7 L2,9 L1,9 L1,10 L0,10 L0,12 L-1,12 L-1,14 L-2,14 L-2,15 L-3,15 L-3,14 L-4,14 L-4,13 L-3,13 L-3,10 L-2,10 L-2,7 L-1,7 L-1,5 L0,5 Z " fill="#A79DBE" transform="translate(356,411)"/>
<path d="M0,0 L3,0 L3,2 L2,2 L2,1 L1,1 L1,3 L2,3 L2,4 L3,4 L3,5 L4,5 L4,6 L1,6 L1,7 L2,7 L2,8 L0,8 L0,7 L-2,7 L-2,6 L-4,6 L-4,5 L-6,5 L-6,3 L-4,3 L-4,2 L0,2 Z " fill="#9484B2" transform="translate(457,192)"/>
<path d="M0,0 L1,0 L1,5 L0,5 L0,6 L-2,6 L-2,10 L-3,10 L-3,11 L-4,11 L-4,12 L-5,12 L-5,13 L-7,13 L-7,14 L-8,14 L-8,15 L-10,15 L-10,14 L-9,14 L-9,13 L-8,13 L-8,11 L-6,11 L-6,9 L-5,9 L-5,8 L-4,8 L-4,7 L-3,7 L-3,5 L-2,5 L-2,3 L-1,3 L-1,2 L0,2 Z " fill="#9887B3" transform="translate(371,263)"/>
<path d="M0,0 L5,0 L5,2 L4,2 L4,3 L2,3 L2,4 L1,4 L1,3 L0,3 L0,4 L-1,4 L-1,6 L-2,6 L-2,7 L-3,7 L-3,6 L-5,6 L-5,5 L-6,5 L-6,3 L-4,3 L-4,2 L-2,2 L-2,1 L0,1 Z " fill="#7A68A0" transform="translate(408,233)"/>
<path d="M0,0 L1,0 L1,1 L3,1 L3,2 L4,2 L4,3 L5,3 L5,4 L6,4 L6,5 L8,5 L8,6 L9,6 L9,7 L10,7 L10,8 L11,8 L11,9 L13,9 L13,10 L9,10 L9,9 L6,9 L6,7 L4,7 L4,6 L3,6 L3,4 L1,4 L1,2 L0,2 Z " fill="#B397BC" transform="translate(352,73)"/>
<path d="M0,0 L18,0 L18,1 L12,1 L12,2 L18,2 L18,3 L11,3 L11,2 L10,2 L10,3 L5,3 L5,1 L0,1 Z " fill="#9671A4" transform="translate(231,30)"/>
<path d="M0,0 L1,0 L1,1 L0,1 Z M-4,1 L0,1 L0,2 L-1,2 L-1,3 L-2,3 L-2,4 L-3,4 L-3,5 L-2,5 L-2,7 L-3,7 L-3,6 L-4,6 L-4,5 L-5,5 L-5,6 L-6,6 L-6,8 L-7,8 L-7,7 L-8,7 L-8,6 L-7,6 L-7,5 L-9,5 L-9,6 L-10,6 L-10,7 L-14,7 L-14,6 L-11,6 L-11,5 L-10,5 L-10,4 L-7,4 L-7,3 L-6,3 L-6,2 L-4,2 Z " fill="#8774AC" transform="translate(361,279)"/>
<path d="M0,0 L4,0 L4,2 L2,2 L2,3 L3,3 L3,4 L2,4 L2,5 L0,5 L0,6 L-1,6 L-1,7 L-2,7 L-2,6 L-4,6 L-4,5 L-3,5 L-3,4 L-5,4 L-5,2 L-3,2 L-3,1 L0,1 Z " fill="#755B9C" transform="translate(91,67)"/>
<path d="M0,0 L1,0 L1,3 L0,3 L0,7 L-1,7 L-1,10 L-2,10 L-2,15 L-3,15 L-3,10 L-4,10 L-4,14 L-6,14 L-6,12 L-5,12 L-5,9 L-4,9 L-4,8 L-3,8 L-3,5 L-2,5 L-2,3 L-1,3 L-1,1 L0,1 Z " fill="#B7AFC5" transform="translate(23,163)"/>
<path d="M0,0 L1,0 L1,6 L0,6 L0,8 L-1,8 L-1,9 L-2,9 L-2,10 L-3,10 L-3,11 L-7,11 L-7,9 L-5,9 L-5,7 L-3,7 L-3,5 L-2,5 L-2,3 L-1,3 L-1,2 L0,2 Z " fill="#AD91B5" transform="translate(115,99)"/>
<path d="M0,0 L1,0 L1,1 L2,1 L2,2 L3,2 L3,3 L1,3 L1,4 L-3,4 L-3,5 L-4,5 L-4,6 L-5,6 L-5,9 L-6,9 L-6,8 L-7,8 L-7,7 L-9,7 L-9,5 L-11,5 L-11,4 L-7,4 L-7,3 L-6,3 L-6,4 L-4,4 L-4,3 L-3,3 L-3,2 L0,2 Z " fill="#B28FBB" transform="translate(365,83)"/>
<path d="M0,0 L2,0 L2,2 L0,2 L0,3 L-2,3 L-2,4 L-4,4 L-4,5 L-5,5 L-5,6 L-7,6 L-7,7 L-8,7 L-8,8 L-10,8 L-10,6 L-12,6 L-12,5 L-10,5 L-10,4 L-8,4 L-8,3 L-5,3 L-5,2 L-2,2 L-2,1 L0,1 Z " fill="#B1AABF" transform="translate(112,54)"/>
<path d="M0,0 L1,0 L1,1 L2,1 L2,2 L4,2 L4,3 L5,3 L5,4 L6,4 L6,5 L7,5 L7,6 L9,6 L9,7 L10,7 L10,9 L7,9 L7,8 L6,8 L6,7 L5,7 L5,8 L4,8 L4,9 L3,9 L3,7 L2,7 L2,6 L3,6 L3,3 L2,3 L2,4 L1,4 L1,2 L0,2 Z " fill="#AC91BA" transform="translate(175,311)"/>
<path d="M0,0 L1,0 L1,7 L2,7 L2,9 L3,9 L3,12 L2,12 L2,10 L-1,10 L-1,7 L-2,7 L-2,3 L-3,3 L-3,1 L-2,1 L-2,2 L-1,2 L-1,1 L0,1 Z " fill="#B8A1C2" transform="translate(410,159)"/>
<path d="M0,0 L1,0 L1,1 L2,1 L2,0 L3,0 L3,1 L4,1 L4,3 L5,3 L5,4 L4,4 L4,8 L2,8 L2,6 L0,6 L0,5 L-1,5 L-1,3 L-2,3 L-2,2 L-1,2 L-1,1 L0,1 Z " fill="#A582B3" transform="translate(399,135)"/>
<path d="M0,0 L5,0 L5,1 L7,1 L7,2 L4,2 L4,3 L1,3 L1,4 L-1,4 L-1,5 L-3,5 L-3,6 L-5,6 L-5,5 L-7,5 L-7,4 L-3,4 L-3,3 L-2,3 L-2,2 L-1,2 L-1,1 L0,1 Z " fill="#AC8CB5" transform="translate(212,68)"/>
<path d="M0,0 L9,0 L9,1 L8,1 L8,2 L6,2 L6,3 L3,3 L3,4 L2,4 L2,5 L1,5 L1,2 L-5,2 L-5,1 L0,1 Z " fill="#A197B9" transform="translate(434,225)"/>
<path d="M0,0 L2,0 L2,1 L5,1 L5,0 L7,0 L7,5 L10,5 L10,6 L6,6 L6,5 L4,5 L4,4 L2,4 L2,3 L0,3 L0,2 L1,2 L1,1 L0,1 Z " fill="#8572AB" transform="translate(110,435)"/>
<path d="M0,0 L1,0 L1,3 L0,3 L0,6 L-2,6 L-2,7 L-3,7 L-3,8 L-7,8 L-7,6 L-6,6 L-6,5 L-5,5 L-5,4 L-3,4 L-3,3 L-2,3 L-2,2 L-1,2 L-1,1 L0,1 Z " fill="#8E7DAE" transform="translate(387,246)"/>
<path d="M0,0 L3,0 L3,1 L5,1 L5,3 L4,3 L4,2 L3,2 L3,4 L1,4 L1,5 L-1,5 L-1,6 L-3,6 L-3,2 L-2,2 L-2,1 L0,1 Z " fill="#816CA6" transform="translate(395,240)"/>
<path d="M0,0 L3,0 L3,2 L4,2 L4,3 L6,3 L6,4 L4,4 L4,5 L9,5 L9,6 L7,6 L7,7 L6,7 L6,8 L5,8 L5,9 L4,9 L4,7 L3,7 L3,5 L2,5 L2,4 L-1,4 L-1,3 L1,3 L1,2 L2,2 L2,1 L0,1 Z " fill="#8873AD" transform="translate(421,228)"/>
<path d="M0,0 L1,0 L1,12 L2,12 L2,17 L3,17 L3,21 L2,21 L2,19 L1,19 L1,18 L0,18 Z " fill="#998BB9" transform="translate(19,179)"/>
<path d="M0,0 L1,0 L1,3 L0,3 L0,4 L-1,4 L-1,5 L-2,5 L-2,6 L-3,6 L-3,7 L-4,7 L-4,8 L-5,8 L-5,9 L-6,9 L-6,10 L-9,10 L-9,9 L-8,9 L-8,8 L-7,8 L-7,6 L-5,6 L-5,4 L-3,4 L-3,3 L-2,3 L-2,2 L-1,2 L-1,1 L0,1 Z " fill="#B097B9" transform="translate(141,68)"/>
<path d="M0,0 L4,0 L4,2 L5,2 L5,3 L2,3 L2,2 L-1,2 L-1,3 L-7,3 L-7,4 L-8,4 L-8,3 L-10,3 L-10,2 L-7,2 L-7,1 L0,1 Z M5,1 L6,1 L6,2 L5,2 Z " fill="#B492BB" transform="translate(245,49)"/>
<path d="M0,0 L11,0 L11,1 L4,1 L4,2 L3,2 L3,3 L-1,3 L-1,5 L0,5 L0,6 L-2,6 L-2,5 L-3,5 L-3,2 L-1,2 L-1,1 L0,1 Z " fill="#6D5597" transform="translate(111,431)"/>
<path d="M0,0 L1,0 L1,1 L3,1 L3,2 L4,2 L4,3 L6,3 L6,4 L8,4 L8,5 L11,5 L11,6 L8,6 L8,8 L6,8 L6,7 L5,7 L5,6 L4,6 L4,5 L3,5 L3,4 L2,4 L2,3 L1,3 L1,2 L0,2 Z " fill="#A79FB4" transform="translate(87,420)"/>
<path d="M0,0 L2,0 L2,1 L3,1 L3,2 L2,2 L2,3 L3,3 L3,4 L4,4 L4,5 L5,5 L5,6 L7,6 L7,8 L8,8 L8,7 L9,7 L9,9 L6,9 L6,11 L5,11 L5,9 L4,9 L4,7 L3,7 L3,6 L2,6 L2,4 L1,4 L1,2 L0,2 Z " fill="#8D7DAF" transform="translate(28,340)"/>
<path d="M0,0 L9,0 L9,1 L10,1 L10,0 L13,0 L13,1 L12,1 L12,2 L13,2 L13,3 L7,3 L7,2 L2,2 L2,1 L0,1 Z " fill="#9673AE" transform="translate(208,338)"/>
<path d="M0,0 L1,0 L1,4 L2,4 L2,8 L3,8 L3,10 L4,10 L4,12 L3,12 L3,16 L1,16 L1,6 L0,6 Z " fill="#8776A9" transform="translate(51,144)"/>
<path d="M0,0 L2,0 L2,1 L4,1 L4,2 L5,2 L5,4 L4,4 L4,6 L3,6 L3,7 L2,7 L2,6 L1,6 L1,5 L3,5 L3,3 L-1,3 L-1,4 L-4,4 L-4,5 L-5,5 L-5,3 L-3,3 L-3,2 L-2,2 L-2,1 L0,1 Z " fill="#9E8DB8" transform="translate(92,64)"/>
<path d="M0,0 L4,0 L4,2 L3,2 L3,5 L2,5 L2,8 L1,8 L1,13 L0,13 L0,4 L1,4 L1,3 L0,3 Z " fill="#AB91B8" transform="translate(130,155)"/>
<path d="M0,0 L1,0 L1,2 L2,2 L2,3 L0,3 L0,7 L1,7 L1,10 L2,10 L2,11 L0,11 L0,15 L-1,15 L-1,14 L-2,14 L-2,9 L-1,9 L-1,2 L0,2 Z " fill="#8977AD" transform="translate(53,122)"/>
<path d="M0,0 L1,0 L1,4 L0,4 L0,6 L-3,6 L-3,10 L-4,10 L-4,11 L-5,11 L-5,10 L-6,10 L-6,11 L-7,11 L-7,9 L-6,9 L-6,8 L-5,8 L-5,7 L-4,7 L-4,5 L-3,5 L-3,4 L-2,4 L-2,3 L-1,3 L-1,1 L0,1 Z " fill="#B79CC0" transform="translate(126,84)"/>
<path d="M0,0 L2,0 L2,1 L1,1 L1,3 L2,3 L2,4 L5,4 L5,6 L6,6 L6,7 L3,7 L3,6 L1,6 L1,5 L0,5 L0,4 L-2,4 L-2,3 L-3,3 L-3,1 L0,1 Z " fill="#9185AB" transform="translate(345,286)"/>
<path d="M0,0 L3,0 L3,2 L-1,2 L-1,3 L0,3 L0,4 L1,4 L1,5 L-2,5 L-2,6 L-5,6 L-5,5 L-4,5 L-4,4 L-5,4 L-5,2 L-3,2 L-3,1 L0,1 Z " fill="#9F74AC" transform="translate(327,61)"/>
<path d="M0,0 L4,0 L4,1 L6,1 L6,2 L7,2 L7,3 L5,3 L5,4 L6,4 L6,5 L2,5 L2,4 L1,4 L1,3 L0,3 Z " fill="#7D6C9A" transform="translate(95,426)"/>
<path d="M0,0 L1,0 L1,17 L0,17 L0,8 L-2,8 L-2,5 L-1,5 L-1,3 L0,3 Z " fill="#9682B6" transform="translate(371,356)"/>
<path d="M0,0 L2,0 L2,3 L1,3 L1,5 L0,5 L0,4 L-3,4 L-3,6 L-2,6 L-2,5 L-1,5 L-1,7 L-2,7 L-2,9 L-3,9 L-3,7 L-4,7 L-4,2 L-1,2 L-1,1 L0,1 Z " fill="#8470A9" transform="translate(28,327)"/>
<path d="M0,0 L2,0 L2,4 L3,4 L3,6 L4,6 L4,8 L3,8 L3,7 L2,7 L2,5 L1,5 L1,6 L-1,6 L-1,7 L-2,7 L-2,5 L-3,5 L-3,3 L-4,3 L-4,2 L-2,2 L-2,4 L0,4 Z " fill="#BBA2C4" transform="translate(403,139)"/>
<path d="M0,0 L3,0 L3,1 L4,1 L4,2 L3,2 L3,3 L2,3 L2,4 L1,4 L1,6 L0,6 L0,7 L-1,7 L-1,9 L-2,9 L-2,4 L-1,4 L-1,1 L0,1 Z " fill="#7E6AA5" transform="translate(56,113)"/>
<path d="M0,0 L1,0 L1,1 L2,1 L2,2 L5,2 L5,4 L4,4 L4,6 L2,6 L2,7 L0,7 Z " fill="#8170A1" transform="translate(357,408)"/>
<path d="M0,0 L1,0 L1,2 L2,2 L2,4 L3,4 L3,6 L4,6 L4,8 L5,8 L5,9 L6,9 L6,11 L5,11 L5,10 L4,10 L4,9 L2,9 L2,6 L-1,6 L-1,5 L0,5 Z " fill="#B096BB" transform="translate(138,262)"/>
<path d="M0,0 L4,0 L4,3 L5,3 L5,5 L6,5 L6,9 L5,9 L5,7 L4,7 L4,6 L3,6 L3,4 L2,4 L2,3 L1,3 L1,2 L0,2 Z " fill="#9183B1" transform="translate(463,202)"/>
<path d="M0,0 L9,0 L9,1 L6,1 L6,2 L3,2 L3,3 L0,3 L0,4 L-3,4 L-3,3 L-1,3 L-1,1 L0,1 Z " fill="#BEA3C6" transform="translate(222,65)"/>
<path d="M0,0 L1,0 L1,2 L2,2 L2,3 L1,3 L1,7 L0,7 L0,8 L-2,8 L-2,6 L-3,6 L-3,7 L-4,7 L-4,5 L-3,5 L-3,4 L-1,4 L-1,2 L0,2 Z " fill="#7257A4" transform="translate(27,321)"/>
<path d="M0,0 L1,0 L1,1 L2,1 L2,2 L3,2 L3,1 L4,1 L4,6 L3,6 L3,8 L2,8 L2,7 L1,7 L1,5 L0,5 Z " fill="#8E81AF" transform="translate(470,210)"/>
<path d="M0,0 L1,0 L1,1 L3,1 L3,3 L1,3 L1,6 L0,6 L0,7 L-1,7 L-1,8 L-2,8 L-2,9 L-3,9 L-3,5 L-1,5 L-1,2 L0,2 Z " fill="#6F569B" transform="translate(470,180)"/>
<path d="M0,0 L2,0 L2,1 L3,1 L3,7 L2,7 L2,6 L1,6 L1,5 L-2,5 L-2,3 L0,3 L0,2 L-1,2 L-1,1 L0,1 Z " fill="#A079AD" transform="translate(379,99)"/>
<path d="M0,0 L1,0 L1,3 L2,3 L2,4 L1,4 L1,5 L-2,5 L-2,6 L-4,6 L-4,5 L-3,5 L-3,4 L-5,4 L-5,3 L-3,3 L-3,2 L-2,2 L-2,1 L0,1 Z M2,2 L3,2 L3,3 L2,3 Z " fill="#AC88B9" transform="translate(156,56)"/>
<path d="M0,0 L2,0 L2,1 L1,1 L1,3 L0,3 L0,5 L-3,5 L-3,4 L-6,4 L-6,5 L-8,5 L-8,4 L-7,4 L-7,3 L-4,3 L-4,2 L-2,2 L-2,1 L0,1 Z " fill="#BCA4C5" transform="translate(182,41)"/>
<path d="M0,0 L2,0 L2,2 L1,2 L1,3 L0,3 L0,4 L-1,4 L-1,5 L-2,5 L-2,6 L-4,6 L-4,8 L-5,8 L-5,6 L-6,6 L-6,5 L-5,5 L-5,4 L-3,4 L-3,2 L0,2 Z " fill="#8A79AA" transform="translate(312,414)"/>
<path d="M0,0 L3,0 L3,1 L5,1 L5,3 L3,3 L3,4 L2,4 L2,5 L0,5 L0,4 L-1,4 L-1,3 L-2,3 L-2,2 L0,2 Z " fill="#8673B1" transform="translate(56,370)"/>
<path d="M0,0 L1,0 L1,2 L2,2 L2,3 L4,3 L4,4 L5,4 L5,5 L4,5 L4,7 L3,7 L3,8 L2,8 L2,7 L1,7 L1,6 L0,6 L0,5 L-1,5 L-1,4 L1,4 L1,3 L0,3 Z " fill="#826EAB" transform="translate(44,358)"/>
<path d="M0,0 L2,0 L2,1 L4,1 L4,2 L6,2 L6,3 L7,3 L7,5 L8,5 L8,6 L7,6 L7,8 L6,8 L6,6 L5,6 L5,5 L4,5 L4,4 L3,4 L3,3 L2,3 L2,2 L1,2 L1,1 L0,1 Z " fill="#947FB0" transform="translate(34,272)"/>
<path d="M0,0 L1,0 L1,7 L2,7 L2,11 L1,11 L1,12 L0,12 L0,11 L-1,11 L-1,6 L0,6 Z " fill="#CEC8D3" transform="translate(413,177)"/>
<path d="M0,0 L1,0 L1,2 L0,2 L0,3 L-1,3 L-1,5 L-2,5 L-2,6 L-3,6 L-3,9 L-4,9 L-4,7 L-5,7 L-5,4 L-4,4 L-4,3 L-3,3 L-3,2 L-2,2 L-2,1 L0,1 Z " fill="#AF9CC0" transform="translate(93,71)"/>
<path d="M0,0 L2,0 L2,1 L1,1 L1,2 L0,2 L0,5 L-2,5 L-2,6 L-5,6 L-5,3 L-4,3 L-4,2 L-1,2 L-1,1 L0,1 Z " fill="#9D7BA8" transform="translate(147,64)"/>
<path d="M0,0 L2,0 L2,1 L5,1 L5,2 L2,2 L2,3 L-2,3 L-2,4 L-4,4 L-4,5 L-6,5 L-6,4 L-5,4 L-5,2 L-1,2 L-1,1 L0,1 Z " fill="#937DB2" transform="translate(249,419)"/>
<path d="M0,0 L2,0 L2,3 L1,3 L1,4 L0,4 L0,5 L-1,5 L-1,7 L-2,7 L-2,8 L-3,8 L-3,6 L-4,6 L-4,5 L-3,5 L-3,4 L-2,4 L-2,2 L0,2 Z " fill="#8A7AAA" transform="translate(391,300)"/>
<path d="M0,0 L1,0 L1,4 L2,4 L2,5 L1,5 L1,6 L0,6 L0,9 L-1,9 L-1,7 L-2,7 L-2,5 L-3,5 L-3,3 L-2,3 L-2,4 L-1,4 L-1,1 L0,1 Z " fill="#8C77B2" transform="translate(61,301)"/>
<path d="M0,0 L6,0 L6,1 L3,1 L3,2 L1,2 L1,3 L0,3 L0,4 L-2,4 L-2,6 L-3,6 L-3,3 L-4,3 L-4,2 L-1,2 L-1,1 L0,1 Z " fill="#8674A8" transform="translate(398,293)"/>
<path d="M0,0 L1,0 L1,1 L2,1 L2,2 L1,2 L1,6 L0,6 L0,9 L-1,9 L-1,7 L-2,7 L-2,2 L-1,2 L-1,1 L0,1 Z " fill="#A888B7" transform="translate(87,79)"/>
<path d="M0,0 L4,0 L4,1 L3,1 L3,3 L-1,3 L-1,4 L-5,4 L-5,3 L-4,3 L-4,2 L-2,2 L-2,1 L0,1 Z " fill="#AD8EB8" transform="translate(172,46)"/>
<path d="M0,0 L2,0 L2,1 L1,1 L1,2 L0,2 L0,5 L-3,5 L-3,4 L-4,4 L-4,5 L-8,5 L-8,4 L-5,4 L-5,3 L-3,3 L-3,2 L-1,2 L-1,1 L0,1 Z " fill="#9284B2" transform="translate(251,451)"/>
<path d="M0,0 L3,0 L3,1 L4,1 L4,2 L5,2 L5,3 L6,3 L6,5 L1,5 L1,4 L3,4 L3,3 L1,3 L1,2 L0,2 Z " fill="#6F589F" transform="translate(424,228)"/>
<path d="M0,0 L3,0 L3,1 L1,1 L1,3 L0,3 L0,4 L-6,4 L-6,2 L-2,2 L-2,1 L0,1 Z " fill="#B59CC0" transform="translate(198,35)"/>
<path d="M0,0 L4,0 L4,1 L7,1 L7,2 L4,2 L4,3 L3,3 L3,4 L1,4 L1,5 L0,5 L0,2 L1,2 L1,1 L0,1 Z " fill="#907EB1" transform="translate(335,394)"/>
<path d="M0,0 L2,0 L2,2 L3,2 L3,3 L4,3 L4,5 L3,5 L3,4 L2,4 L2,11 L1,11 L1,3 L0,3 Z " fill="#AFA5C5" transform="translate(17,303)"/>
<path d="M0,0 L3,0 L3,3 L4,3 L4,4 L5,4 L5,5 L4,5 L4,6 L6,6 L6,7 L5,7 L5,8 L4,8 L4,7 L3,7 L3,5 L2,5 L2,4 L1,4 L1,1 L0,1 Z " fill="#9481B1" transform="translate(21,253)"/>
<path d="M0,0 L2,0 L2,1 L1,1 L1,2 L2,2 L2,3 L3,3 L3,6 L5,6 L5,7 L3,7 L3,10 L2,10 L2,6 L1,6 L1,4 L0,4 Z " fill="#9F8DBA" transform="translate(14,235)"/>
<path d="M0,0 L1,0 L1,1 L2,1 L2,4 L1,4 L1,9 L-1,9 L-1,3 L0,3 Z " fill="#AF93BA" transform="translate(128,167)"/>
<path d="M0,0 L2,0 L2,1 L3,1 L3,2 L5,2 L5,3 L7,3 L7,4 L1,4 L1,5 L0,5 L0,4 L-1,4 L-1,3 L0,3 L0,2 L1,2 L1,1 L0,1 Z " fill="#AD94BA" transform="translate(341,67)"/>
<path d="M0,0 L5,0 L5,1 L3,1 L3,2 L1,2 L1,3 L0,3 L0,4 L-1,4 L-1,5 L-2,5 L-2,7 L-3,7 L-3,3 L-1,3 L-1,1 L0,1 Z " fill="#B49BBD" transform="translate(214,41)"/>
<path d="M0,0 L1,0 L1,2 L2,2 L2,3 L3,3 L3,5 L2,5 L2,6 L1,6 L1,5 L0,5 L0,4 L-3,4 L-3,3 L-2,3 L-2,2 L-1,2 L-1,1 L0,1 Z " fill="#7B65A6" transform="translate(289,432)"/>
<path d="M0,0 L1,0 L1,2 L4,2 L4,3 L3,3 L3,6 L2,6 L2,7 L0,7 Z " fill="#B6A4C6" transform="translate(408,297)"/>
<path d="M0,0 L2,0 L2,1 L4,1 L4,3 L3,3 L3,4 L5,4 L5,6 L4,6 L4,5 L1,5 L1,3 L0,3 Z " fill="#836FA2" transform="translate(32,267)"/>
<path d="M0,0 L2,0 L2,4 L1,4 L1,5 L0,5 L0,7 L-1,7 L-1,10 L-2,10 L-2,6 L-1,6 L-1,3 L0,3 Z " fill="#A092B7" transform="translate(15,181)"/>
<path d="M0,0 L4,0 L4,1 L10,1 L10,2 L6,2 L6,3 L5,3 L5,2 L4,2 L4,3 L2,3 L2,4 L1,4 L1,2 L2,2 L2,1 L0,1 Z " fill="#B597BF" transform="translate(289,49)"/>
</svg>
